<mxfile host="app.diagrams.net" modified="2024-03-01T14:36:31.253Z" agent="Mozilla/5.0 (Windows NT 10.0; Win64; x64) AppleWebKit/537.36 (KHTML, like Gecko) Chrome/122.0.0.0 Safari/537.36" etag="Fv5GMvqX1pvhJON3dHZ2" version="24.0.0" type="device">
  <diagram name="Page-1" id="cOIMZP_uMlF_paqm3EPE">
    <mxGraphModel dx="2133" dy="813" grid="1" gridSize="10" guides="1" tooltips="1" connect="1" arrows="1" fold="1" page="1" pageScale="1" pageWidth="850" pageHeight="1100" math="0" shadow="0">
      <root>
        <mxCell id="0" />
        <mxCell id="1" parent="0" />
        <mxCell id="YrB0c2sQe1z121eA3091-1" value="" style="rounded=0;whiteSpace=wrap;html=1;" parent="1" vertex="1">
          <mxGeometry x="380" y="210" width="520" height="350" as="geometry" />
        </mxCell>
        <mxCell id="YrB0c2sQe1z121eA3091-2" value="Cloud Computing &amp;amp;DevOps Consulting Systems" style="text;html=1;align=center;verticalAlign=middle;whiteSpace=wrap;rounded=0;" parent="1" vertex="1">
          <mxGeometry x="510" y="210" width="270" height="30" as="geometry" />
        </mxCell>
        <mxCell id="YrB0c2sQe1z121eA3091-3" value="Cloud &amp;amp; DevOps Consultation" style="ellipse;whiteSpace=wrap;html=1;strokeWidth=1;" parent="1" vertex="1">
          <mxGeometry x="410" y="250" width="120" height="60" as="geometry" />
        </mxCell>
        <mxCell id="YrB0c2sQe1z121eA3091-4" value="Design Cloud Architecture&amp;nbsp;&amp;nbsp;" style="ellipse;whiteSpace=wrap;html=1;strokeWidth=1;" parent="1" vertex="1">
          <mxGeometry x="600" y="250" width="120" height="60" as="geometry" />
        </mxCell>
        <mxCell id="YrB0c2sQe1z121eA3091-5" value="Implement CI/CD&amp;nbsp;&lt;div&gt;Pipelines&lt;/div&gt;" style="ellipse;whiteSpace=wrap;html=1;strokeWidth=1;" parent="1" vertex="1">
          <mxGeometry x="580" y="330" width="120" height="60" as="geometry" />
        </mxCell>
        <mxCell id="YrB0c2sQe1z121eA3091-6" value="Cloud Infrastructure&amp;nbsp;&lt;div&gt;Setup&lt;/div&gt;" style="ellipse;whiteSpace=wrap;html=1;strokeWidth=1;" parent="1" vertex="1">
          <mxGeometry x="410" y="330" width="120" height="60" as="geometry" />
        </mxCell>
        <mxCell id="YrB0c2sQe1z121eA3091-8" value="Training &amp;amp; Supports" style="ellipse;whiteSpace=wrap;html=1;strokeWidth=1;" parent="1" vertex="1">
          <mxGeometry x="410" y="500" width="120" height="40" as="geometry" />
        </mxCell>
        <mxCell id="YrB0c2sQe1z121eA3091-9" value="Configure, compliance &amp;amp; Auditing&amp;nbsp;" style="ellipse;whiteSpace=wrap;html=1;strokeWidth=1;" parent="1" vertex="1">
          <mxGeometry x="410" y="420" width="120" height="60" as="geometry" />
        </mxCell>
        <mxCell id="YrB0c2sQe1z121eA3091-10" value="Centralized Operations Managements" style="ellipse;whiteSpace=wrap;html=1;strokeWidth=1;" parent="1" vertex="1">
          <mxGeometry x="580" y="420" width="120" height="60" as="geometry" />
        </mxCell>
        <mxCell id="YrB0c2sQe1z121eA3091-11" value="Quality Assurance Check" style="ellipse;whiteSpace=wrap;html=1;strokeWidth=1;" parent="1" vertex="1">
          <mxGeometry x="600" y="500" width="120" height="40" as="geometry" />
        </mxCell>
        <mxCell id="YrB0c2sQe1z121eA3091-12" value="Monitoring &amp;amp; Observability&amp;nbsp;" style="ellipse;whiteSpace=wrap;html=1;strokeWidth=1;" parent="1" vertex="1">
          <mxGeometry x="760" y="480" width="120" height="40" as="geometry" />
        </mxCell>
        <mxCell id="YrB0c2sQe1z121eA3091-13" value="Cloud Infrastructure Optimization" style="ellipse;whiteSpace=wrap;html=1;strokeWidth=1;" parent="1" vertex="1">
          <mxGeometry x="730" y="370" width="130" height="50" as="geometry" />
        </mxCell>
        <mxCell id="YrB0c2sQe1z121eA3091-15" value="Project Manager" style="shape=umlActor;verticalLabelPosition=bottom;verticalAlign=top;html=1;outlineConnect=0;" parent="1" vertex="1">
          <mxGeometry x="270" y="210" width="30" height="60" as="geometry" />
        </mxCell>
        <mxCell id="YrB0c2sQe1z121eA3091-16" value="DevOps Engineer" style="shape=umlActor;verticalLabelPosition=bottom;verticalAlign=top;html=1;outlineConnect=0;" parent="1" vertex="1">
          <mxGeometry x="240" y="370" width="30" height="60" as="geometry" />
        </mxCell>
        <mxCell id="YrB0c2sQe1z121eA3091-17" value="Support Team" style="shape=umlActor;verticalLabelPosition=bottom;verticalAlign=top;html=1;outlineConnect=0;" parent="1" vertex="1">
          <mxGeometry x="261" y="540" width="30" height="60" as="geometry" />
        </mxCell>
        <mxCell id="YrB0c2sQe1z121eA3091-18" value="Technical Team" style="shape=umlActor;verticalLabelPosition=bottom;verticalAlign=top;html=1;outlineConnect=0;" parent="1" vertex="1">
          <mxGeometry x="120" y="270" width="30" height="60" as="geometry" />
        </mxCell>
        <mxCell id="YrB0c2sQe1z121eA3091-21" value="Cloud Architect" style="shape=umlActor;verticalLabelPosition=bottom;verticalAlign=top;html=1;outlineConnect=0;" parent="1" vertex="1">
          <mxGeometry x="250" y="120" width="30" height="60" as="geometry" />
        </mxCell>
        <mxCell id="YrB0c2sQe1z121eA3091-22" value="Client" style="shape=umlActor;verticalLabelPosition=bottom;verticalAlign=top;html=1;outlineConnect=0;" parent="1" vertex="1">
          <mxGeometry x="291" y="310" width="30" height="60" as="geometry" />
        </mxCell>
        <mxCell id="YrB0c2sQe1z121eA3091-24" value="" style="endArrow=block;endSize=16;endFill=0;html=1;rounded=0;exitX=0.5;exitY=0.5;exitDx=0;exitDy=0;exitPerimeter=0;" parent="1" source="YrB0c2sQe1z121eA3091-21" edge="1">
          <mxGeometry width="160" relative="1" as="geometry">
            <mxPoint x="180" y="260" as="sourcePoint" />
            <mxPoint x="160" y="280" as="targetPoint" />
          </mxGeometry>
        </mxCell>
        <mxCell id="YrB0c2sQe1z121eA3091-26" value="" style="endArrow=block;endSize=16;endFill=0;html=1;rounded=0;" parent="1" edge="1">
          <mxGeometry width="160" relative="1" as="geometry">
            <mxPoint x="250" y="410" as="sourcePoint" />
            <mxPoint x="170" y="320" as="targetPoint" />
          </mxGeometry>
        </mxCell>
        <mxCell id="YrB0c2sQe1z121eA3091-28" value="Quality Assurance Team" style="shape=umlActor;verticalLabelPosition=bottom;verticalAlign=top;html=1;outlineConnect=0;" parent="1" vertex="1">
          <mxGeometry x="720" y="580" width="30" height="60" as="geometry" />
        </mxCell>
        <mxCell id="YrB0c2sQe1z121eA3091-29" value="Cloud Service Provider&amp;nbsp;" style="shape=umlActor;verticalLabelPosition=bottom;verticalAlign=top;html=1;outlineConnect=0;" parent="1" vertex="1">
          <mxGeometry x="500" y="580" width="30" height="60" as="geometry" />
        </mxCell>
        <mxCell id="YrB0c2sQe1z121eA3091-30" value="Cloud Engineer" style="shape=umlActor;verticalLabelPosition=bottom;verticalAlign=top;html=1;outlineConnect=0;" parent="1" vertex="1">
          <mxGeometry x="970" y="365" width="30" height="60" as="geometry" />
        </mxCell>
        <mxCell id="YrB0c2sQe1z121eA3091-32" value="" style="endArrow=none;html=1;rounded=0;entryX=0;entryY=0;entryDx=0;entryDy=0;exitX=0.5;exitY=0.5;exitDx=0;exitDy=0;exitPerimeter=0;" parent="1" source="YrB0c2sQe1z121eA3091-21" target="YrB0c2sQe1z121eA3091-4" edge="1">
          <mxGeometry width="50" height="50" relative="1" as="geometry">
            <mxPoint x="290" y="120" as="sourcePoint" />
            <mxPoint x="340" y="70" as="targetPoint" />
          </mxGeometry>
        </mxCell>
        <mxCell id="YrB0c2sQe1z121eA3091-37" value="" style="endArrow=none;html=1;rounded=0;exitX=0.758;exitY=0.939;exitDx=0;exitDy=0;exitPerimeter=0;" parent="1" source="YrB0c2sQe1z121eA3091-11" target="YrB0c2sQe1z121eA3091-28" edge="1">
          <mxGeometry width="50" height="50" relative="1" as="geometry">
            <mxPoint x="630" y="640" as="sourcePoint" />
            <mxPoint x="680" y="590" as="targetPoint" />
          </mxGeometry>
        </mxCell>
        <mxCell id="YrB0c2sQe1z121eA3091-38" value="" style="endArrow=none;html=1;rounded=0;entryX=0.066;entryY=0.285;entryDx=0;entryDy=0;entryPerimeter=0;exitX=0.5;exitY=0.5;exitDx=0;exitDy=0;exitPerimeter=0;" parent="1" source="YrB0c2sQe1z121eA3091-15" target="YrB0c2sQe1z121eA3091-3" edge="1">
          <mxGeometry width="50" height="50" relative="1" as="geometry">
            <mxPoint x="290" y="240" as="sourcePoint" />
            <mxPoint x="340" y="190" as="targetPoint" />
          </mxGeometry>
        </mxCell>
        <mxCell id="YrB0c2sQe1z121eA3091-39" value="" style="endArrow=none;html=1;rounded=0;entryX=0.078;entryY=0.146;entryDx=0;entryDy=0;entryPerimeter=0;" parent="1" target="YrB0c2sQe1z121eA3091-8" edge="1">
          <mxGeometry width="50" height="50" relative="1" as="geometry">
            <mxPoint x="330" y="350" as="sourcePoint" />
            <mxPoint x="380" y="440" as="targetPoint" />
          </mxGeometry>
        </mxCell>
        <mxCell id="YrB0c2sQe1z121eA3091-40" value="" style="endArrow=none;html=1;rounded=0;entryX=0;entryY=0;entryDx=0;entryDy=0;exitX=0.5;exitY=0.5;exitDx=0;exitDy=0;exitPerimeter=0;" parent="1" source="YrB0c2sQe1z121eA3091-15" target="YrB0c2sQe1z121eA3091-6" edge="1">
          <mxGeometry width="50" height="50" relative="1" as="geometry">
            <mxPoint x="350" y="330" as="sourcePoint" />
            <mxPoint x="370" y="280" as="targetPoint" />
          </mxGeometry>
        </mxCell>
        <mxCell id="YrB0c2sQe1z121eA3091-42" value="" style="endArrow=none;html=1;rounded=0;entryX=0;entryY=1;entryDx=0;entryDy=0;" parent="1" target="YrB0c2sQe1z121eA3091-3" edge="1">
          <mxGeometry width="50" height="50" relative="1" as="geometry">
            <mxPoint x="330" y="350" as="sourcePoint" />
            <mxPoint x="380" y="440" as="targetPoint" />
          </mxGeometry>
        </mxCell>
        <mxCell id="YrB0c2sQe1z121eA3091-43" value="" style="endArrow=none;html=1;rounded=0;entryX=0.011;entryY=0.684;entryDx=0;entryDy=0;exitX=0.737;exitY=0.766;exitDx=0;exitDy=0;exitPerimeter=0;entryPerimeter=0;" parent="1" source="YrB0c2sQe1z121eA3091-16" target="YrB0c2sQe1z121eA3091-6" edge="1">
          <mxGeometry width="50" height="50" relative="1" as="geometry">
            <mxPoint x="291" y="400" as="sourcePoint" />
            <mxPoint x="341" y="350" as="targetPoint" />
          </mxGeometry>
        </mxCell>
        <mxCell id="YrB0c2sQe1z121eA3091-45" value="" style="endArrow=none;html=1;rounded=0;entryX=0;entryY=1;entryDx=0;entryDy=0;" parent="1" target="YrB0c2sQe1z121eA3091-8" edge="1">
          <mxGeometry width="50" height="50" relative="1" as="geometry">
            <mxPoint x="280" y="590" as="sourcePoint" />
            <mxPoint x="330" y="540" as="targetPoint" />
          </mxGeometry>
        </mxCell>
        <mxCell id="YrB0c2sQe1z121eA3091-47" value="" style="endArrow=none;html=1;rounded=0;" parent="1" target="YrB0c2sQe1z121eA3091-9" edge="1">
          <mxGeometry width="50" height="50" relative="1" as="geometry">
            <mxPoint x="281" y="580" as="sourcePoint" />
            <mxPoint x="331" y="530" as="targetPoint" />
          </mxGeometry>
        </mxCell>
        <mxCell id="YrB0c2sQe1z121eA3091-48" value="" style="endArrow=none;html=1;rounded=0;exitX=1;exitY=0.5;exitDx=0;exitDy=0;" parent="1" source="YrB0c2sQe1z121eA3091-13" target="YrB0c2sQe1z121eA3091-30" edge="1">
          <mxGeometry width="50" height="50" relative="1" as="geometry">
            <mxPoint x="920" y="470" as="sourcePoint" />
            <mxPoint x="970" y="350" as="targetPoint" />
          </mxGeometry>
        </mxCell>
        <mxCell id="YrB0c2sQe1z121eA3091-49" value="" style="endArrow=none;html=1;rounded=0;entryX=0;entryY=1;entryDx=0;entryDy=0;" parent="1" target="YrB0c2sQe1z121eA3091-10" edge="1">
          <mxGeometry width="50" height="50" relative="1" as="geometry">
            <mxPoint x="520" y="620" as="sourcePoint" />
            <mxPoint x="570" y="570" as="targetPoint" />
          </mxGeometry>
        </mxCell>
        <mxCell id="YrB0c2sQe1z121eA3091-51" value="&amp;lt;&amp;lt;include&amp;gt;&amp;gt;" style="endArrow=open;dashed=1;html=1;endFill=0;rounded=0;exitX=1.016;exitY=0.67;exitDx=0;exitDy=0;exitPerimeter=0;entryX=0.039;entryY=0.641;entryDx=0;entryDy=0;entryPerimeter=0;" parent="1" source="YrB0c2sQe1z121eA3091-3" target="YrB0c2sQe1z121eA3091-4" edge="1">
          <mxGeometry x="-0.2075" y="9" width="50" height="50" relative="1" as="geometry">
            <mxPoint x="550" y="290" as="sourcePoint" />
            <mxPoint x="600" y="291" as="targetPoint" />
            <mxPoint as="offset" />
          </mxGeometry>
        </mxCell>
        <mxCell id="YrB0c2sQe1z121eA3091-54" value="" style="endArrow=none;html=1;rounded=0;exitX=1;exitY=0.5;exitDx=0;exitDy=0;" parent="1" source="YrB0c2sQe1z121eA3091-6" edge="1">
          <mxGeometry width="50" height="50" relative="1" as="geometry">
            <mxPoint x="530" y="410" as="sourcePoint" />
            <mxPoint x="580" y="360" as="targetPoint" />
          </mxGeometry>
        </mxCell>
        <mxCell id="YrB0c2sQe1z121eA3091-55" value="&amp;lt;&amp;lt;include&amp;gt;&amp;gt;" style="endArrow=open;dashed=1;html=1;endFill=0;rounded=0;entryX=1;entryY=1;entryDx=0;entryDy=0;" parent="1" target="YrB0c2sQe1z121eA3091-6" edge="1">
          <mxGeometry width="50" height="50" relative="1" as="geometry">
            <mxPoint x="590" y="430" as="sourcePoint" />
            <mxPoint x="700" y="430" as="targetPoint" />
          </mxGeometry>
        </mxCell>
        <mxCell id="YrB0c2sQe1z121eA3091-56" value="&lt;div&gt;&amp;lt;&amp;lt;extend&amp;gt;&amp;gt;&lt;/div&gt;" style="endArrow=open;dashed=1;html=1;endFill=0;rounded=0;entryX=1;entryY=1;entryDx=0;entryDy=0;exitX=0;exitY=0.5;exitDx=0;exitDy=0;" parent="1" source="YrB0c2sQe1z121eA3091-11" target="YrB0c2sQe1z121eA3091-9" edge="1">
          <mxGeometry width="50" height="50" relative="1" as="geometry">
            <mxPoint x="590" y="500" as="sourcePoint" />
            <mxPoint x="700" y="500" as="targetPoint" />
          </mxGeometry>
        </mxCell>
        <mxCell id="YrB0c2sQe1z121eA3091-57" value="&amp;lt;&amp;lt;include&amp;gt;&amp;gt;" style="endArrow=open;dashed=1;html=1;endFill=0;rounded=0;entryX=1;entryY=0.5;entryDx=0;entryDy=0;exitX=0;exitY=0.5;exitDx=0;exitDy=0;" parent="1" source="YrB0c2sQe1z121eA3091-11" target="YrB0c2sQe1z121eA3091-8" edge="1">
          <mxGeometry width="50" height="50" relative="1" as="geometry">
            <mxPoint x="590" y="430" as="sourcePoint" />
            <mxPoint x="700" y="430" as="targetPoint" />
          </mxGeometry>
        </mxCell>
        <mxCell id="YrB0c2sQe1z121eA3091-58" value="&lt;div&gt;&amp;lt;&amp;lt;extend&amp;gt;&amp;gt;&lt;/div&gt;" style="endArrow=open;dashed=1;html=1;endFill=0;rounded=0;entryX=1;entryY=1;entryDx=0;entryDy=0;exitX=0.238;exitY=0.108;exitDx=0;exitDy=0;exitPerimeter=0;" parent="1" source="YrB0c2sQe1z121eA3091-13" target="YrB0c2sQe1z121eA3091-4" edge="1">
          <mxGeometry width="50" height="50" relative="1" as="geometry">
            <mxPoint x="750" y="370" as="sourcePoint" />
            <mxPoint x="860" y="370" as="targetPoint" />
          </mxGeometry>
        </mxCell>
        <mxCell id="YrB0c2sQe1z121eA3091-59" value="&lt;div&gt;&amp;lt;&amp;lt;extend&amp;gt;&amp;gt;&lt;/div&gt;" style="endArrow=open;dashed=1;html=1;endFill=0;rounded=0;entryX=0.5;entryY=1;entryDx=0;entryDy=0;" parent="1" target="YrB0c2sQe1z121eA3091-13" edge="1">
          <mxGeometry width="50" height="50" relative="1" as="geometry">
            <mxPoint x="800" y="480" as="sourcePoint" />
            <mxPoint x="910" y="480" as="targetPoint" />
          </mxGeometry>
        </mxCell>
        <mxCell id="YrB0c2sQe1z121eA3091-60" value="" style="endArrow=none;html=1;rounded=0;entryX=0;entryY=1;entryDx=0;entryDy=0;exitX=0.721;exitY=0.807;exitDx=0;exitDy=0;exitPerimeter=0;" parent="1" source="YrB0c2sQe1z121eA3091-16" target="YrB0c2sQe1z121eA3091-5" edge="1">
          <mxGeometry width="50" height="50" relative="1" as="geometry">
            <mxPoint x="280" y="460" as="sourcePoint" />
            <mxPoint x="620" y="380" as="targetPoint" />
          </mxGeometry>
        </mxCell>
      </root>
    </mxGraphModel>
  </diagram>
</mxfile>
